HIERARCHY
ROOT base
{
	OFFSET 0.000000 0.000000 0.000000
	CHANNELS 6 Xposition Yposition Zposition Xrotation Yrotation Zrotation
	JOINT torso
	{
		OFFSET 0.000000 0.000000 0.522674
		CHANNELS 3 Xrotation Yrotation Zrotation
		JOINT head
		{
			OFFSET 0.000000 0.000000 0.302405
			CHANNELS 3 Xrotation Yrotation Zrotation
			End Site
			{
				OFFSET 0.000000 0.000000 0.195674
			}
		}
		JOINT arm.upper.left
		{
			OFFSET 0.123316 0.000000 0.245458
			CHANNELS 6 Xposition Yposition Zposition Xrotation Yrotation Zrotation
			JOINT arm.lower.left
			{
				OFFSET 0.010098 0.000000 -0.198052
				CHANNELS 3 Xrotation Yrotation Zrotation
				End Site
				{
					OFFSET 0.004139 0.000000 -0.183228
				}
			}
		}
		JOINT arm.upper.right
		{
			OFFSET -0.123316 0.000000 0.245458
			CHANNELS 6 Xposition Yposition Zposition Xrotation Yrotation Zrotation
			JOINT arm.lower.right
			{
				OFFSET -0.010098 0.000000 -0.198052
				CHANNELS 3 Xrotation Yrotation Zrotation
				End Site
				{
					OFFSET -0.004139 0.000000 -0.183228
				}
			}
		}
	}
	JOINT leg.upper.left
	{
		OFFSET 0.061056 0.000000 0.482372
		CHANNELS 6 Xposition Yposition Zposition Xrotation Yrotation Zrotation
		JOINT leg.lower.left
		{
			OFFSET 0.008277 0.000000 -0.229460
			CHANNELS 3 Xrotation Yrotation Zrotation
			End Site
			{
				OFFSET 0.002935 0.000000 -0.252034
			}
		}
	}
	JOINT leg.upper.right
	{
		OFFSET -0.061056 0.000000 0.482372
		CHANNELS 6 Xposition Yposition Zposition Xrotation Yrotation Zrotation
		JOINT leg.lower.right
		{
			OFFSET -0.008277 0.000000 -0.229460
			CHANNELS 3 Xrotation Yrotation Zrotation
			End Site
			{
				OFFSET -0.002935 0.000000 -0.252034
			}
		}
	}
}
MOTION
Frames: 20
Frame Time: 0.041667
0.000000 0.000000 0.000000 -0.000000 0.000000 -0.000000 -0.000000 0.000000 -0.000000 -0.000000 0.000000 -0.000000 0.123316 0.000000 0.245458 9.586978 -0.711036 0.630280 0.322949 1.815264 0.059705 -0.123316 0.000000 0.245458 -4.769273 0.788217 0.268221 -85.129948 0.168481 -1.828247 0.061056 0.000000 0.482371 -14.133439 0.385187 -0.425488 2.056599 -0.718802 -0.068889 -0.061056 0.000000 0.482372 15.897071 -0.480912 -0.453869 0.314829 0.778815 0.035518 
0.000000 0.000000 0.000000 -0.000000 0.000000 -0.000000 -0.000000 0.000000 -0.000000 -0.000000 0.000000 -0.000000 0.123316 0.000000 0.245458 8.910059 -0.721406 0.587019 0.299712 1.813212 0.055362 -0.123316 0.000000 0.245458 -4.715899 0.797963 0.268303 -85.297055 0.237225 -1.903048 0.061056 0.000000 0.482372 -13.091863 0.380791 -0.394768 1.995622 -0.720886 -0.067690 -0.061056 0.000000 0.482372 12.419122 -0.442448 -0.351201 6.595242 0.743550 0.020883 
0.000000 0.000000 0.000000 -0.000000 0.000000 -0.000000 -0.000000 0.000000 -0.000000 -0.000000 0.000000 -0.000000 0.123316 0.000000 0.245458 6.873721 -0.749507 0.456184 0.229909 1.807064 0.042311 -0.123316 0.000000 0.245458 -4.576152 0.823329 0.271618 -85.733750 0.418072 -2.097763 0.061056 0.000000 0.482371 -9.951935 0.370792 -0.301762 1.812473 -0.727152 -0.064102 -0.061056 0.000000 0.482371 3.092569 -0.372866 -0.067415 23.323535 0.648908 0.001831 
0.000000 0.000000 0.000000 -0.000000 0.000000 -0.000000 -0.000000 0.000000 -0.000000 -0.000000 0.000000 -0.000000 0.123316 0.000000 0.245458 4.121354 -0.780062 0.277922 0.135791 1.798800 0.024701 -0.123316 0.000000 0.245458 -4.436034 0.848375 0.283352 -86.169837 0.600396 -2.291101 0.061056 0.000000 0.482372 -5.694056 0.365319 -0.175051 1.565515 -0.735620 -0.059295 -0.061056 0.000000 0.482372 -6.703998 -0.353079 0.235641 39.999357 0.556118 0.010535 
0.000000 0.000000 0.000000 -0.000000 0.000000 -0.000000 -0.000000 0.000000 -0.000000 -0.000000 0.000000 -0.000000 0.123316 0.000000 0.245458 1.642176 -0.800228 0.116266 0.051164 1.791394 0.008856 -0.123316 0.000000 0.245458 -4.381728 0.857311 0.304789 -86.336385 0.670486 -2.364646 0.061056 0.000000 0.482371 -1.849650 0.368470 -0.060578 1.343456 -0.743251 -0.055006 -0.061056 0.000000 0.482372 -11.359163 -0.365372 0.374133 46.232495 0.522425 0.020674 
0.000000 0.000000 0.000000 -0.000000 0.000000 -0.000000 -0.000000 0.000000 -0.000000 -0.000000 0.000000 -0.000000 0.123316 0.000000 0.245458 -0.917260 -0.813691 -0.051374 -0.036150 1.783777 -0.007503 -0.123316 0.000000 0.245458 -4.417830 0.845909 0.341349 -86.249300 0.644826 -2.059342 0.061056 0.000000 0.482371 2.122620 0.379753 0.057205 1.114389 -0.751139 -0.050609 -0.061056 0.000000 0.482371 -12.612416 -0.374352 0.403556 42.434651 0.538879 0.020562 
0.000000 0.000000 0.000000 -0.000000 0.000000 -0.000000 -0.000000 0.000000 -0.000000 -0.000000 0.000000 -0.000000 0.123316 0.000000 0.245458 -4.076535 -0.819963 -0.258863 -0.143981 1.774406 -0.027721 -0.123316 0.000000 0.245458 -4.521604 0.815564 0.396124 -86.003242 0.575042 -1.199096 0.061056 0.000000 0.482371 7.022306 0.404809 0.200962 0.831552 -0.760903 -0.045223 -0.061056 -0.000000 0.482372 -13.491448 -0.380848 0.420913 31.524762 0.586235 0.025506 
0.000000 0.000000 0.000000 -0.000000 0.000000 -0.000000 -0.000000 0.000000 -0.000000 -0.000000 0.000000 -0.000000 0.123316 -0.000000 0.245458 -7.112083 -0.815208 -0.458265 -0.247793 1.765419 -0.047202 -0.123316 0.000000 0.245458 -4.655340 0.776944 0.454291 -85.685809 0.490866 -0.094048 0.061056 0.000000 0.482372 11.717301 0.440188 0.336231 0.559218 -0.770330 -0.040085 -0.061056 -0.000000 0.482372 -13.956877 -0.384179 0.426886 17.283111 0.647122 0.043383 
0.000000 0.000000 0.000000 -0.000000 0.000000 -0.000000 -0.000000 0.000000 -0.000000 -0.000000 0.000000 -0.000000 0.123316 -0.000000 0.245458 -9.155178 -0.806063 -0.592210 -0.317847 1.759374 -0.060357 -0.123316 0.000000 0.245458 -4.759639 0.746928 0.495764 -85.437498 0.429563 0.766821 0.061056 0.000000 0.482372 14.865891 0.470062 0.425127 0.375338 -0.776711 -0.036645 -0.061056 0.000000 0.482372 -14.113041 -0.385131 0.426485 6.177214 0.694767 0.064279 
0.000000 0.000000 0.000000 -0.000000 0.000000 -0.000000 -0.000000 0.000000 -0.000000 -0.000000 0.000000 -0.000000 0.123316 0.000000 0.245458 -9.825901 -0.802021 -0.636101 -0.340885 1.757390 -0.064685 -0.123316 0.000000 0.245458 -4.796690 0.736279 0.509836 -85.349142 0.408699 1.072477 0.061056 -0.000000 0.482372 15.897071 0.480914 0.453868 0.314829 -0.778814 -0.035518 -0.061056 0.000000 0.482371 -14.133442 -0.385186 0.425486 2.056599 0.718803 0.068888 
0.000000 0.000000 0.000000 -0.000000 0.000000 -0.000000 -0.000000 0.000000 -0.000000 -0.000000 0.000000 -0.000000 0.123316 -0.000000 0.245458 -9.432011 -0.804454 -0.610332 -0.327439 1.758548 -0.062160 -0.123316 0.000000 0.245458 -4.735337 0.751649 0.493630 -85.385841 0.402253 0.751385 0.061056 0.000000 0.482372 14.322932 0.479494 0.407639 4.427043 -0.755936 -0.022389 -0.061056 -0.000000 0.482372 -13.523161 -0.382541 0.407496 1.759276 0.728978 0.063067 
0.000000 0.000000 0.000000 -0.000000 0.000000 -0.000000 -0.000000 0.000000 -0.000000 -0.000000 0.000000 -0.000000 0.123316 0.000000 0.245458 -8.186328 -0.810982 -0.528736 -0.284881 1.762216 -0.054166 -0.123316 0.000000 0.245458 -4.562504 0.794846 0.447894 -85.489366 0.385200 -0.153167 0.061056 0.000000 0.482372 9.662630 0.478830 0.271169 16.243694 -0.686164 0.005763 -0.061056 0.000000 0.482372 -11.594698 -0.375402 0.350488 1.599379 0.734459 0.059955 
0.000000 0.000000 0.000000 -0.000000 0.000000 -0.000000 -0.000000 0.000000 -0.000000 -0.000000 0.000000 -0.000000 0.123316 -0.000000 0.245458 -6.220704 -0.817676 -0.399748 -0.217660 1.768023 -0.041546 -0.123316 0.000000 0.245458 -4.340529 0.850109 0.388977 -85.622685 0.365703 -1.314736 0.061056 0.000000 0.482371 3.090899 0.486533 0.080023 31.612834 -0.590015 0.020015 -0.061056 -0.000000 0.482371 -8.554523 -0.367997 0.260222 1.534006 0.736702 0.058685 
0.000000 0.000000 0.000000 -0.000000 0.000000 -0.000000 -0.000000 0.000000 -0.000000 -0.000000 0.000000 -0.000000 0.123316 0.000000 0.245458 -3.976044 -0.819913 -0.252271 -0.140832 1.774679 -0.027131 -0.123316 0.000000 0.245458 -4.167612 0.892990 0.342943 -85.726763 0.352394 -2.219348 0.061056 0.000000 0.482372 -3.127969 0.495765 -0.099189 43.419492 -0.515690 0.013310 -0.061056 0.000000 0.482372 -5.085931 -0.365359 0.156929 1.472747 0.738806 0.057500 
0.000000 0.000000 0.000000 -0.000000 0.000000 -0.000000 -0.000000 0.000000 -0.000000 -0.000000 0.000000 -0.000000 0.123316 0.000000 0.245458 -1.880510 -0.816797 -0.114609 -0.069075 1.780911 -0.013675 -0.123316 0.000000 0.245458 -4.106213 0.908180 0.326569 -85.763762 0.348065 -2.540473 0.061056 0.000000 0.482372 -7.330840 0.486044 -0.220631 47.526099 -0.490329 0.007406 -0.061056 0.000000 0.482371 -1.849650 -0.368468 0.060577 1.343456 0.743251 0.055005 
0.000000 0.000000 0.000000 -0.000000 0.000000 -0.000000 -0.000000 0.000000 -0.000000 -0.000000 0.000000 -0.000000 0.123316 0.000000 0.245458 0.528375 -0.806999 0.043375 0.013367 1.788093 0.001776 -0.123316 0.000000 0.245458 -4.148518 0.843688 0.343146 -85.663570 0.418542 -2.139302 0.061056 0.000000 0.482372 -10.072579 0.460268 -0.301579 43.567335 -0.511624 0.008238 -0.061056 0.000000 0.482372 1.871918 -0.378715 -0.049799 1.127145 0.750701 0.050854 
0.000000 0.000000 0.000000 -0.000000 0.000000 -0.000000 -0.000000 0.000000 -0.000000 -0.000000 0.000000 -0.000000 0.123316 0.000000 0.245458 3.656106 -0.784380 0.247645 0.120295 1.797442 0.021801 -0.123316 0.000000 0.245458 -4.267574 0.661968 0.389580 -85.383956 0.620842 -1.009743 0.061056 0.000000 0.482372 -12.165772 0.432923 -0.364438 32.208734 -0.571954 0.002450 -0.061056 0.000000 0.482371 6.710741 -0.402684 -0.191895 0.846581 0.760386 0.045512 
0.000000 0.000000 0.000000 -0.000000 0.000000 -0.000000 -0.000000 0.000000 -0.000000 -0.000000 0.000000 -0.000000 0.123316 0.000000 0.245458 6.754626 -0.751009 0.448498 0.226162 1.806734 0.041610 -0.123316 0.000000 0.245458 -4.420219 0.428500 0.448647 -85.030821 0.888643 0.439411 0.061056 0.000000 0.482371 -13.447066 0.407800 -0.403764 17.429898 -0.647284 -0.022669 -0.061056 0.000000 0.482372 11.509532 -0.438221 -0.330322 0.568795 0.770002 0.040270 
0.000000 0.000000 0.000000 -0.000000 0.000000 -0.000000 -0.000000 0.000000 -0.000000 -0.000000 0.000000 -0.000000 0.123316 0.000000 0.245458 8.880900 -0.721842 0.585152 0.298817 1.813134 0.055195 -0.123316 0.000000 0.245458 -4.538931 0.246561 0.494216 -84.760571 1.103324 1.566831 0.061056 0.000000 0.482371 -14.008298 0.390834 -0.421439 6.035533 -0.701085 -0.055024 -0.061056 0.000000 0.482371 14.803289 -0.469354 -0.423384 0.378144 0.776616 0.036699 
0.000000 0.000000 0.000000 -0.000000 0.000000 -0.000000 -0.000000 0.000000 -0.000000 -0.000000 0.000000 -0.000000 0.123316 0.000000 0.245458 9.586978 -0.711036 0.630280 0.322949 1.815264 0.059705 -0.123316 0.000000 0.245458 -4.581042 0.181947 0.510304 -84.665652 1.180800 1.966792 0.061056 0.000000 0.482371 -14.133439 0.385187 -0.425488 2.056599 -0.718802 -0.068889 -0.061056 0.000000 0.482372 15.897071 -0.480912 -0.453869 0.314829 0.778815 0.035518 
